<?xml version="1.0" standalone="no"?>
<!DOCTYPE svg PUBLIC "-//W3C//DTD SVG 20010904//EN"
 "http://www.w3.org/TR/2001/REC-SVG-20010904/DTD/svg10.dtd">
<svg version="1.0" xmlns="http://www.w3.org/2000/svg"
 width="1156.000000pt" height="542.000000pt" viewBox="0 0 1156.000000 542.000000"
 preserveAspectRatio="xMidYMid meet">
<metadata>
Created by potrace 1.16, written by Peter Selinger 2001-2019
</metadata>
<g transform="translate(0.000000,542.000000) scale(0.100000,-0.100000)"
fill="#000000" stroke="none">
<path d="M5615 4994 c-484 -51 -897 -216 -1255 -502 -400 -320 -692 -789 -804
-1292 -41 -189 -51 -282 -51 -505 1 -231 14 -344 64 -550 147 -602 544 -1128
1085 -1440 980 -563 2226 -329 2939 554 253 314 414 682 484 1106 25 155 25
516 0 668 -44 263 -106 457 -217 683 -331 675 -969 1142 -1720 1259 -101 15
-440 28 -525 19z m-358 -1797 c63 -33 114 -83 145 -145 18 -38 23 -64 23 -132
0 -73 -4 -92 -27 -136 -35 -66 -77 -108 -142 -141 -144 -73 -330 -16 -410 127
-29 51 -31 62 -31 150 0 88 2 99 31 150 36 63 108 123 174 145 68 22 173 14
237 -18z m-779 -603 c71 -23 140 -79 176 -144 29 -51 31 -62 31 -150 0 -87 -3
-100 -30 -149 -79 -144 -266 -202 -411 -128 -65 33 -107 75 -142 141 -23 44
-27 63 -27 136 0 70 4 93 24 130 42 81 118 145 201 171 43 13 126 10 178 -7z
m2857 -17 c60 -30 114 -85 146 -147 20 -37 24 -60 24 -130 0 -73 -4 -92 -27
-136 -35 -66 -77 -108 -142 -141 -145 -74 -332 -16 -411 128 -27 49 -30 62
-30 149 0 88 2 99 31 150 35 63 104 120 173 144 68 23 172 16 236 -17z"/>
</g>
</svg>
